<svg xmlns="http://www.w3.org/2000/svg" xmlns:xlink="http://www.w3.org/1999/xlink" width="200" zoomAndPan="magnify" viewBox="0 0 150 149.999998" height="200" preserveAspectRatio="xMidYMid meet" version="1.0"><path fill="#ffffff" d="M 107.601562 132.285156 C 141.46875 121.480469 154.339844 87.105469 136.34375 55.503906 C 118.347656 23.90625 76.304688 7.046875 42.4375 17.851562 C 8.566406 28.660156 -4.300781 63.035156 13.695312 94.632812 C 31.691406 126.230469 73.734375 143.089844 107.601562 132.285156 " fill-opacity="1" fill-rule="nonzero"/><path fill="#ffffff" d="M 107.601562 132.285156 C 141.46875 121.480469 154.339844 87.105469 136.34375 55.503906 C 118.347656 23.90625 76.304688 7.046875 42.4375 17.851562 C 8.566406 28.660156 -4.300781 63.035156 13.695312 94.632812 C 31.691406 126.230469 73.734375 143.089844 107.601562 132.285156 " fill-opacity="1" fill-rule="nonzero"/><path fill="#062849" d="M 82.425781 85.964844 C 81.34375 89.542969 78.761719 92.898438 75.15625 95.414062 C 71.554688 97.925781 67.34375 99.3125 63.300781 99.3125 L 47 99.3125 L 47.132812 98.875 L 47.355469 98.136719 L 50.59375 87.441406 L 50.726562 87.003906 L 50.800781 86.765625 L 61.257812 86.765625 C 61.257812 86.765625 61.460938 86.773438 61.441406 86.773438 C 63.839844 86.773438 65.789062 85.066406 65.789062 82.96875 C 65.789062 82.144531 65.496094 81.363281 64.9375 80.703125 C 64.9375 80.707031 64.632812 80.355469 64.628906 80.347656 L 56.832031 70.835938 C 56.832031 70.835938 56.574219 70.523438 56.574219 70.519531 L 56.585938 70.515625 C 54.628906 67.929688 54.128906 64.597656 55.195312 61.078125 C 56.277344 57.5 58.859375 54.144531 62.464844 51.632812 C 66.066406 49.117188 70.277344 47.734375 74.320312 47.734375 L 90.59375 47.734375 L 90.464844 48.171875 L 90.242188 48.910156 L 87 59.605469 L 86.867188 60.039062 L 86.796875 60.28125 L 76.195312 60.28125 L 76.195312 60.289062 C 73.796875 60.289062 71.847656 61.996094 71.847656 64.09375 C 71.847656 64.917969 72.140625 65.703125 72.703125 66.363281 C 72.703125 66.363281 73.410156 67.207031 73.410156 67.207031 L 80.789062 76.210938 C 80.789062 76.210938 81.023438 76.492188 81.023438 76.496094 L 81.011719 76.5 C 82.988281 79.09375 83.496094 82.4375 82.425781 85.964844 M 132.566406 56.710938 C 131.070312 54.089844 129.398438 51.578125 127.574219 49.179688 L 124.414062 59.605469 L 124.285156 60.039062 L 124.210938 60.28125 L 113.609375 60.28125 L 113.609375 60.289062 C 111.210938 60.289062 109.261719 61.996094 109.261719 64.097656 C 109.261719 64.917969 109.558594 65.703125 110.117188 66.363281 C 110.117188 66.363281 110.824219 67.207031 110.828125 67.207031 C 110.828125 67.207031 118.203125 76.210938 118.207031 76.214844 L 118.445312 76.511719 L 118.4375 76.515625 C 120.40625 79.101562 120.90625 82.441406 119.839844 85.964844 C 118.757812 89.542969 116.175781 92.898438 112.570312 95.414062 C 108.96875 97.925781 104.757812 99.3125 100.714844 99.3125 L 84.414062 99.3125 L 84.546875 98.875 L 84.769531 98.136719 L 88.007812 87.441406 L 88.140625 87.003906 L 88.214844 86.765625 L 98.671875 86.765625 C 98.671875 86.765625 98.875 86.773438 98.859375 86.773438 C 101.253906 86.773438 103.203125 85.066406 103.203125 82.96875 C 103.203125 82.144531 102.910156 81.363281 102.351562 80.703125 C 102.351562 80.707031 102.046875 80.355469 102.042969 80.347656 L 94.246094 70.835938 L 94 70.535156 L 94.007812 70.527344 C 92.042969 67.9375 91.542969 64.601562 92.609375 61.078125 C 93.695312 57.503906 96.273438 54.148438 99.878906 51.632812 C 103.480469 49.121094 107.691406 47.734375 111.734375 47.734375 L 126.445312 47.734375 C 110.957031 28.453125 85.28125 17.132812 60.96875 18.414062 L 57.171875 30.953125 L 57.039062 31.386719 L 56.964844 31.628906 L 40.625 31.628906 L 40.757812 31.191406 L 40.980469 30.453125 L 43.652344 21.640625 C 12.464844 32.0625 0.730469 64.023438 17.472656 93.429688 C 18.355469 94.972656 19.300781 96.484375 20.300781 97.953125 L 35.3125 48.378906 L 35.445312 47.945312 L 35.515625 47.707031 L 51.855469 47.707031 L 51.722656 48.144531 L 51.5 48.878906 L 36.410156 98.703125 L 36.277344 99.136719 L 36.207031 99.375 L 21.296875 99.375 C 39.785156 125.140625 76.011719 138.199219 105.59375 128.761719 C 137.375 118.621094 149.449219 86.363281 132.566406 56.710938 " fill-opacity="1" fill-rule="nonzero"/></svg>