<svg xmlns="http://www.w3.org/2000/svg" xmlns:xlink="http://www.w3.org/1999/xlink" width="96" zoomAndPan="magnify" viewBox="0 0 72 89.999999" height="120" preserveAspectRatio="xMidYMid meet" version="1.0"><defs><g/><clipPath id="079d3ee0bd"><path d="M 0 81.125 L 43.894531 81.125 L 43.894531 88.699219 L 0 88.699219 Z M 0 81.125 " clip-rule="nonzero"/></clipPath><clipPath id="5e8d255589"><path d="M 42.898438 83.324219 C 9.523438 85.050781 -3.824219 87.824219 -6.449219 87.148438 C -7.050781 87 -7.351562 86.773438 -7.425781 86.476562 C -7.5 86.175781 -7.273438 85.648438 -6.898438 85.425781 C -5.773438 84.824219 -1.273438 86.324219 1.726562 86.476562 C 5.023438 86.625 9.824219 86.625 12.226562 86.324219 C 13.5 86.175781 14.023438 86.023438 15.074219 85.574219 C 16.5 84.898438 18.675781 82.425781 19.648438 82.351562 C 20.101562 82.273438 20.550781 82.5 20.699219 82.800781 C 20.851562 83.101562 20.851562 83.773438 20.398438 84.148438 C 18.976562 85.273438 7.574219 84.976562 5.773438 84 C 5.25 83.699219 4.949219 83.175781 5.023438 82.875 C 5.101562 82.574219 5.550781 82.199219 5.851562 82.199219 C 6.148438 82.199219 6.824219 82.949219 6.824219 83.25 C 6.824219 83.550781 6.074219 84.074219 5.773438 84 C 5.476562 83.925781 5.023438 83.25 5.023438 82.949219 C 5.023438 82.648438 5.550781 82.199219 5.851562 82.199219 C 6.148438 82.199219 6.824219 82.800781 6.824219 83.101562 C 6.824219 83.398438 6.074219 84.074219 5.773438 84 C 5.476562 83.925781 4.949219 83.175781 5.023438 82.875 C 5.101562 82.574219 5.324219 82.351562 5.851562 82.199219 C 7.648438 81.601562 18.523438 81.226562 20.101562 82.351562 C 20.625 82.726562 20.851562 83.398438 20.625 83.925781 C 20.175781 85.050781 16.875 86.925781 14.324219 87.675781 C 10.949219 88.648438 5.398438 88.273438 1.648438 88.125 C -1.425781 87.976562 -5.476562 87.976562 -6.675781 87.148438 C -7.199219 86.773438 -7.574219 86.25 -7.351562 85.875 C -6.75 84.75 0.449219 84.375 5.925781 83.773438 C 14.699219 82.800781 35.101562 81.523438 40.351562 81.449219 C 41.925781 81.449219 42.824219 81.148438 43.351562 81.523438 C 43.726562 81.75 43.875 82.425781 43.800781 82.726562 C 43.726562 83.023438 42.898438 83.324219 42.898438 83.324219 " clip-rule="nonzero"/></clipPath><clipPath id="3a3db228dc"><path d="M 0 77.066406 L 45 77.066406 L 45 90 L 0 90 Z M 0 77.066406 " clip-rule="nonzero"/></clipPath><clipPath id="a0f1cfe463"><path d="M 5.175781 82.425781 C 7.648438 81 8.101562 81.976562 7.875 82.574219 C 7.273438 84 -0.0742188 86.851562 -1.949219 87 C -2.699219 87.074219 -3.226562 86.851562 -3.523438 86.550781 C -3.824219 86.25 -3.898438 85.574219 -3.75 85.125 C -3.523438 84.523438 -2.550781 84 -1.648438 83.398438 C -0.300781 82.425781 2.773438 80.398438 3.898438 80.175781 C 4.351562 80.101562 4.648438 80.101562 4.875 80.324219 C 5.101562 80.550781 5.398438 81.148438 5.175781 81.449219 C 4.726562 82.125 0.226562 82.800781 -0.898438 82.5 C -1.425781 82.351562 -1.875 82.050781 -1.949219 81.675781 C -2.023438 81.375 -1.949219 80.851562 -1.574219 80.476562 C -0.449219 79.425781 4.574219 78.824219 8.476562 78.449219 C 13.726562 77.925781 21.226562 78.074219 27.148438 78.300781 C 32.476562 78.523438 40.648438 78.300781 42.449219 79.5 C 43.050781 79.875 43.273438 80.476562 43.125 80.925781 C 42.898438 81.675781 41.25 82.5 39.824219 83.101562 C 37.648438 84 34.5 84.226562 30.75 84.601562 C 24.824219 85.199219 9.75 86.324219 7.5 85.199219 C 6.976562 84.976562 6.824219 84.523438 6.824219 84.226562 C 6.824219 83.925781 7.125 83.625 7.726562 83.398438 C 9.976562 82.351562 25.273438 81.074219 27.523438 81.523438 C 27.976562 81.601562 28.199219 81.75 28.351562 81.976562 C 28.5 82.199219 28.5 82.726562 28.199219 83.023438 C 26.851562 84.300781 12 85.726562 10.125 84.523438 C 9.523438 84.148438 9.449219 83.550781 9.523438 83.023438 C 9.675781 82.199219 11.625 80.25 12.148438 80.398438 C 12.523438 80.476562 12.976562 81.75 12.75 82.050781 C 12.375 82.5 9.898438 81.300781 8.398438 81.523438 C 6.601562 81.824219 3.75 84.375 2.851562 84 C 2.398438 83.851562 2.175781 83.023438 2.175781 82.574219 C 2.175781 82.050781 2.699219 81.074219 3.148438 80.925781 C 3.523438 80.773438 4.351562 81.226562 4.648438 81.675781 C 5.101562 82.351562 4.5 84.601562 5.023438 85.125 C 5.476562 85.574219 6 85.273438 7.125 85.273438 C 11.023438 85.351562 31.5 83.398438 34.050781 84.523438 C 34.574219 84.75 34.800781 85.125 34.800781 85.425781 C 34.800781 85.726562 34.574219 86.25 34.199219 86.476562 C 33.449219 86.925781 30.675781 87.074219 30 86.625 C 29.625 86.398438 29.476562 85.800781 29.550781 85.5 C 29.625 85.199219 29.925781 84.824219 30.449219 84.675781 C 31.800781 84.226562 38.101562 84.898438 39.148438 85.726562 C 39.523438 86.023438 39.675781 86.476562 39.601562 86.773438 C 39.523438 87.074219 39.300781 87.300781 38.773438 87.523438 C 37.199219 88.125 28.351562 88.425781 27.300781 87.523438 C 27 87.226562 27 86.773438 27.148438 86.398438 C 27.449219 85.648438 29.324219 84.601562 30.449219 84.148438 C 31.425781 83.773438 32.625 83.550781 33.300781 83.773438 C 33.75 83.925781 34.199219 84.449219 34.199219 84.824219 C 34.199219 85.125 33.75 85.726562 33.449219 85.800781 C 33.148438 85.875 32.550781 85.726562 32.324219 85.425781 C 32.101562 85.125 32.101562 84.300781 32.25 83.773438 C 32.476562 83.023438 33.75 81.449219 34.050781 81.523438 C 34.199219 81.601562 34.425781 82.425781 34.199219 82.726562 C 33.601562 83.476562 29.476562 83.476562 27.601562 83.476562 C 26.101562 83.476562 24.300781 83.550781 23.699219 82.949219 C 23.25 82.5 23.101562 81.375 23.398438 80.851562 C 23.851562 80.25 25.875 79.875 26.773438 79.949219 C 27.375 80.023438 28.125 80.398438 28.273438 80.773438 C 28.425781 81.148438 28.273438 81.898438 27.898438 82.199219 C 27.375 82.648438 25.5 82.726562 24.824219 82.351562 C 24.300781 82.050781 23.851562 81.226562 24 80.625 C 24.300781 79.574219 28.425781 77.324219 29.550781 77.398438 C 30.074219 77.476562 30.601562 78 30.675781 78.375 C 30.75 78.75 30.523438 79.125 30.074219 79.574219 C 28.425781 81 17.625 84.601562 15.523438 84.449219 C 14.925781 84.449219 14.550781 84.226562 14.398438 83.925781 C 14.25 83.625 14.175781 83.101562 14.476562 82.648438 C 15.148438 81.675781 19.425781 79.425781 20.476562 79.648438 C 20.925781 79.726562 21.226562 80.25 21.300781 80.550781 C 21.375 80.851562 21.148438 81.300781 20.773438 81.601562 C 19.949219 82.351562 16.726562 83.398438 15.226562 83.550781 C 14.25 83.625 13.050781 83.550781 12.75 83.101562 C 12.449219 82.648438 12.898438 81.523438 13.273438 80.851562 C 13.648438 80.175781 14.625 78.976562 15.074219 79.050781 C 15.449219 79.125 16.125 80.101562 15.976562 80.699219 C 15.75 81.675781 12.976562 83.476562 11.851562 84 C 11.175781 84.300781 10.425781 84.523438 10.050781 84.300781 C 9.675781 84.074219 9.300781 82.949219 9.523438 82.5 C 9.75 82.050781 10.5 81.675781 11.398438 81.523438 C 13.351562 81.148438 18.898438 81.75 21 82.574219 C 22.125 83.023438 22.425781 83.925781 23.398438 84.300781 C 24.75 84.824219 27.601562 84.375 28.425781 84.976562 C 28.875 85.273438 29.101562 85.800781 29.101562 86.175781 C 29.101562 86.550781 28.726562 86.925781 28.199219 87.226562 C 26.851562 87.898438 21.75 87.074219 19.648438 87.601562 C 18.300781 87.898438 17.699219 89.023438 16.574219 89.101562 C 15.375 89.175781 13.5 88.648438 12.601562 87.976562 C 11.851562 87.449219 12 86.476562 11.25 85.726562 C 9.976562 84.523438 5.773438 83.699219 5.023438 82.351562 C 4.574219 81.523438 4.800781 80.175781 5.25 79.648438 C 5.699219 79.125 6.898438 79.199219 7.800781 79.125 C 8.699219 79.050781 9.898438 79.050781 10.574219 79.425781 C 11.175781 79.726562 11.699219 80.398438 11.851562 80.851562 C 11.925781 81.226562 11.925781 81.675781 11.550781 81.976562 C 10.726562 82.726562 6 83.625 4.800781 83.175781 C 4.273438 82.949219 3.824219 82.425781 3.824219 82.050781 C 3.824219 81.675781 4.050781 81.300781 4.648438 81 C 7.273438 79.648438 24.675781 79.800781 30.976562 80.25 C 34.574219 80.476562 37.125 80.476562 39.375 81.601562 C 41.25 82.574219 43.273438 84.824219 43.800781 86.023438 C 44.023438 86.625 44.101562 87.375 43.800781 87.675781 C 43.5 87.976562 41.925781 87.523438 41.925781 87.601562 C 41.925781 87.675781 43.5 87.824219 43.5 87.898438 C 43.5 87.976562 41.476562 88.273438 40.949219 87.976562 C 40.5 87.75 40.050781 87 40.199219 86.625 C 40.425781 86.101562 42.976562 85.125 43.199219 85.351562 C 43.351562 85.5 43.050781 86.476562 42.75 86.699219 C 42.375 86.925781 41.175781 86.851562 40.949219 86.476562 C 40.726562 86.101562 41.101562 84.601562 41.398438 84.523438 C 41.625 84.449219 42.226562 85.125 42.375 85.574219 C 42.601562 86.101562 42.675781 87.148438 42.449219 87.601562 C 42.226562 87.976562 41.625 88.351562 41.25 88.351562 C 40.875 88.351562 40.351562 87.976562 40.125 87.523438 C 39.824219 86.925781 39.75 85.425781 39.976562 84.75 C 40.199219 84.226562 40.648438 83.625 41.101562 83.550781 C 41.476562 83.476562 42.226562 83.773438 42.375 84.148438 C 42.523438 84.523438 42.226562 85.351562 41.925781 85.875 C 41.550781 86.476562 40.726562 87.375 40.199219 87.523438 C 39.824219 87.601562 39.300781 87.523438 39.074219 87.226562 C 38.773438 86.851562 38.699219 85.648438 39.074219 85.351562 C 39.523438 84.976562 41.550781 85.875 42 85.574219 C 42.300781 85.351562 42.074219 84.601562 42.226562 84.523438 C 42.449219 84.449219 43.199219 84.976562 43.199219 85.273438 C 43.199219 85.648438 41.398438 86.101562 40.949219 86.625 C 40.648438 87.074219 40.800781 87.976562 40.5 88.125 C 40.125 88.351562 38.773438 87.523438 38.773438 87.601562 C 38.773438 87.675781 39.824219 88.125 39.75 88.273438 C 39.601562 88.726562 33.75 88.273438 31.5 88.648438 C 29.925781 88.949219 28.425781 90.148438 27.601562 89.851562 C 27.074219 89.699219 26.550781 88.949219 26.625 88.5 C 26.699219 88.125 27.226562 87.601562 27.824219 87.375 C 29.023438 86.851562 33 86.773438 34.050781 87.148438 C 34.5 87.300781 34.800781 87.523438 34.875 87.824219 C 35.023438 88.199219 34.800781 89.023438 34.5 89.25 C 34.199219 89.476562 33 89.25 32.851562 88.949219 C 32.625 88.574219 33.148438 87.300781 33.523438 87.148438 C 33.898438 87.074219 34.875 87.75 34.949219 88.125 C 35.023438 88.5 34.5 89.175781 33.898438 89.476562 C 32.699219 90.074219 27.976562 90.148438 27.074219 89.550781 C 26.699219 89.324219 26.625 88.800781 26.625 88.5 C 26.625 88.125 26.925781 87.824219 27.300781 87.523438 C 28.050781 87 29.773438 86.625 31.425781 86.324219 C 33.675781 85.949219 37.875 85.648438 39.449219 85.949219 C 40.199219 86.101562 40.800781 86.25 40.949219 86.625 C 41.101562 87 40.800781 87.898438 40.5 88.125 C 40.273438 88.351562 39.675781 88.273438 39.375 88.125 C 39 87.898438 38.324219 87.226562 38.324219 86.773438 C 38.324219 86.25 38.925781 85.574219 39.523438 85.050781 C 40.273438 84.375 41.773438 83.25 42.75 83.175781 C 43.5 83.101562 44.550781 83.550781 44.773438 84.074219 C 45 84.601562 44.476562 85.574219 44.023438 86.175781 C 43.5 86.851562 42.601562 87.824219 41.773438 87.976562 C 40.949219 88.125 39.523438 87.75 39.074219 87.226562 C 38.699219 86.851562 38.625 86.101562 38.851562 85.574219 C 39.074219 84.824219 40.425781 83.625 41.101562 83.550781 C 41.550781 83.476562 42.074219 83.773438 42.375 84.148438 C 42.75 84.75 42.75 86.550781 42.523438 87.300781 C 42.375 87.75 42.148438 88.125 41.851562 88.273438 C 41.550781 88.425781 40.949219 88.425781 40.648438 88.199219 C 40.125 87.75 39.300781 85.273438 39.75 84.675781 C 40.125 84.148438 41.773438 84.226562 42.675781 84.523438 C 43.5 84.824219 44.851562 85.726562 44.925781 86.324219 C 45 86.851562 44.175781 87.824219 43.726562 87.824219 C 43.199219 87.824219 41.925781 86.101562 42.074219 85.949219 C 42.148438 85.800781 43.875 86.175781 44.101562 86.550781 C 44.25 86.851562 44.023438 87.449219 43.800781 87.675781 C 43.5 87.976562 42.898438 88.125 42.375 87.976562 C 41.25 87.675781 39.824219 84.601562 38.023438 83.625 C 36.074219 82.574219 34.125 82.5 30.976562 82.273438 C 24.976562 81.824219 6.898438 84.375 4.5 83.101562 C 3.976562 82.800781 3.824219 82.425781 3.824219 82.050781 C 3.824219 81.675781 4.125 81.300781 4.648438 81 C 5.773438 80.398438 10.351562 79.5 11.324219 80.101562 C 11.773438 80.398438 11.925781 81.074219 11.851562 81.449219 C 11.773438 81.824219 11.25 82.273438 10.726562 82.351562 C 9.824219 82.5 6.75 80.550781 6.75 80.625 C 6.75 80.699219 11.550781 82.574219 12.824219 83.699219 C 13.648438 84.449219 13.726562 85.648438 14.476562 86.101562 C 15.148438 86.550781 16.199219 86.625 17.023438 86.476562 C 17.851562 86.324219 18.300781 85.5 19.425781 85.199219 C 21.375 84.675781 26.851562 84.300781 28.199219 84.898438 C 28.726562 85.125 29.101562 85.574219 29.101562 85.949219 C 29.101562 86.324219 28.726562 87 28.199219 87.226562 C 27.375 87.601562 25.273438 87.300781 24.074219 86.851562 C 22.875 86.398438 22.273438 85.199219 20.925781 84.675781 C 18.976562 83.925781 15 84.375 13.125 83.773438 C 12 83.398438 10.648438 83.023438 10.574219 82.425781 C 10.5 81.601562 13.574219 79.351562 14.550781 79.125 C 15.074219 78.976562 15.601562 79.199219 15.824219 79.425781 C 16.050781 79.648438 16.050781 80.101562 16.050781 80.398438 C 16.050781 80.773438 15.824219 81.375 15.523438 81.601562 C 15.226562 81.824219 14.101562 81.601562 14.101562 81.523438 C 14.101562 81.300781 19.800781 79.199219 20.699219 79.726562 C 21.148438 79.949219 21.375 80.773438 21.148438 81.300781 C 20.699219 82.351562 16.726562 84.449219 15.523438 84.449219 C 15 84.449219 14.398438 84.074219 14.324219 83.699219 C 14.25 83.324219 14.398438 82.800781 14.925781 82.351562 C 16.574219 80.851562 27.523438 77.101562 29.550781 77.398438 C 30.148438 77.476562 30.449219 77.851562 30.601562 78.148438 C 30.75 78.523438 30.601562 78.976562 30.300781 79.425781 C 29.625 80.324219 26.101562 82.273438 25.125 82.351562 C 24.75 82.351562 24.523438 82.273438 24.300781 82.050781 C 24.074219 81.75 23.851562 81 24 80.625 C 24.148438 80.25 24.75 79.949219 25.273438 79.800781 C 25.949219 79.648438 27.148438 79.726562 27.675781 80.101562 C 28.050781 80.398438 28.273438 81 28.273438 81.375 C 28.273438 81.75 27.976562 82.125 27.601562 82.351562 C 27.074219 82.648438 25.199219 82.949219 24.976562 82.648438 C 24.824219 82.351562 25.199219 81.375 25.875 80.925781 C 27.226562 80.023438 33.148438 79.875 34.800781 80.476562 C 35.550781 80.699219 36 81.226562 36.148438 81.675781 C 36.300781 82.050781 36.226562 82.648438 35.925781 83.023438 C 35.550781 83.550781 33.601562 84.074219 33.675781 84.300781 C 33.675781 84.449219 34.875 84.226562 35.25 84.449219 C 35.625 84.675781 35.925781 85.125 36 85.5 C 36.074219 85.949219 35.699219 86.773438 35.25 87.148438 C 34.726562 87.601562 33.375 87.976562 32.699219 87.75 C 32.175781 87.523438 31.574219 86.851562 31.5 86.25 C 31.425781 85.574219 32.25 84 32.773438 83.773438 C 33.148438 83.625 33.75 83.851562 33.976562 84.148438 C 34.199219 84.449219 34.199219 85.125 33.898438 85.574219 C 33.148438 86.476562 27.824219 88.050781 27.300781 87.523438 C 27.074219 87.300781 27.300781 86.25 27.824219 85.875 C 28.800781 85.125 32.476562 85.273438 34.5 85.273438 C 36.226562 85.273438 38.398438 85.199219 39.148438 85.726562 C 39.523438 85.949219 39.675781 86.476562 39.601562 86.773438 C 39.523438 87.074219 39.226562 87.375 38.773438 87.523438 C 37.5 87.976562 31.425781 87.675781 30.300781 86.773438 C 29.773438 86.324219 29.550781 85.425781 29.773438 85.050781 C 30.074219 84.601562 31.574219 84.449219 32.398438 84.449219 C 33.148438 84.449219 34.425781 84.601562 34.648438 84.976562 C 34.800781 85.351562 34.648438 86.101562 33.976562 86.550781 C 31.351562 88.351562 9.375 87.75 5.550781 87.523438 C 4.574219 87.449219 4.199219 87.523438 3.75 87.226562 C 3.375 87 3.148438 86.625 3 86.101562 C 2.773438 85.351562 2.324219 84 2.773438 83.101562 C 3.449219 81.75 6.523438 79.726562 8.324219 79.5 C 9.898438 79.273438 12.449219 80.25 12.898438 80.925781 C 13.125 81.226562 12.976562 81.675781 12.75 82.050781 C 12.375 82.800781 10.726562 84.523438 10.125 84.523438 C 9.75 84.523438 9.300781 83.925781 9.300781 83.625 C 9.300781 83.324219 9.449219 83.023438 9.898438 82.800781 C 11.550781 81.824219 22.351562 81.449219 25.273438 81.375 C 26.476562 81.375 27.226562 81.226562 27.75 81.523438 C 28.125 81.75 28.574219 82.125 28.5 82.425781 C 28.425781 82.875 27.148438 83.25 25.875 83.550781 C 22.574219 84.375 9.898438 85.949219 7.726562 85.199219 C 7.199219 84.976562 6.824219 84.675781 6.824219 84.375 C 6.824219 84.074219 7.125 83.699219 7.726562 83.398438 C 10.199219 82.273438 25.199219 83.25 30.601562 82.875 C 33.601562 82.648438 35.550781 82.5 37.5 82.050781 C 39 81.75 40.648438 81.375 41.476562 80.773438 C 42 80.398438 42.148438 79.574219 42.449219 79.5 C 42.75 79.5 43.199219 79.875 43.273438 80.175781 C 43.351562 80.476562 43.125 81 42.601562 81.300781 C 40.050781 82.648438 20.398438 80.175781 14.324219 80.25 C 11.476562 80.324219 10.125 80.324219 7.949219 80.699219 C 5.550781 81.074219 2.175781 82.351562 0.523438 82.5 C -0.300781 82.574219 -1.050781 82.648438 -1.425781 82.351562 C -1.726562 82.125 -2.101562 81.523438 -1.949219 81.148438 C -1.726562 80.625 -0.226562 79.949219 0.824219 79.800781 C 2.023438 79.574219 4.273438 79.800781 4.875 80.324219 C 5.175781 80.625 5.324219 81 5.175781 81.449219 C 4.726562 82.574219 -0.226562 85.949219 -1.425781 85.875 C -1.875 85.875 -2.398438 85.425781 -2.398438 85.125 C -2.324219 84.226562 5.023438 80.699219 6.75 80.851562 C 7.425781 80.925781 8.101562 81.375 8.175781 81.824219 C 8.25 82.351562 7.125 83.773438 6.523438 84 C 6.074219 84.148438 5.398438 84.074219 5.175781 83.773438 C 4.949219 83.476562 5.175781 82.425781 5.175781 82.425781 " clip-rule="nonzero"/></clipPath></defs><path fill="#000000" d="M 70.140625 63.578125 L 53.535156 34.8125 C 53.34375 34.480469 52.988281 34.277344 52.605469 34.277344 C 52.226562 34.277344 51.871094 34.480469 51.679688 34.8125 L 47.738281 41.636719 L 37.109375 23.222656 L 37.109375 18.714844 L 48.460938 18.714844 C 48.855469 18.714844 49.222656 18.496094 49.40625 18.144531 C 49.59375 17.792969 49.566406 17.367188 49.34375 17.039062 L 46.816406 13.351562 L 49.34375 9.664062 C 49.566406 9.335938 49.59375 8.910156 49.40625 8.558594 C 49.222656 8.207031 48.855469 7.988281 48.460938 7.988281 L 37.109375 7.988281 L 37.109375 7.886719 C 37.109375 7.292969 36.628906 6.816406 36.035156 6.816406 C 35.445312 6.816406 34.964844 7.292969 34.964844 7.886719 L 34.964844 23.21875 L 24.296875 41.699219 L 20.320312 34.8125 C 20.128906 34.480469 19.773438 34.277344 19.394531 34.277344 C 19.011719 34.277344 18.65625 34.480469 18.464844 34.8125 L 1.859375 63.578125 C 1.667969 63.910156 1.667969 64.316406 1.859375 64.648438 C 2.050781 64.980469 2.402344 65.183594 2.785156 65.183594 L 69.214844 65.183594 C 69.597656 65.183594 69.949219 64.980469 70.140625 64.648438 C 70.332031 64.316406 70.332031 63.910156 70.140625 63.578125 Z M 46.425781 10.132812 L 44.632812 12.746094 C 44.382812 13.113281 44.382812 13.59375 44.632812 13.957031 L 46.425781 16.570312 L 37.109375 16.570312 L 37.109375 10.132812 Z M 4.640625 63.042969 L 19.394531 37.492188 L 28.273438 52.871094 C 28.472656 53.214844 28.832031 53.40625 29.203125 53.40625 C 29.382812 53.40625 29.566406 53.359375 29.734375 53.261719 C 30.25 52.96875 30.421875 52.3125 30.128906 51.800781 L 25.535156 43.839844 L 36.035156 25.648438 L 51.714844 52.808594 C 51.914062 53.152344 52.273438 53.34375 52.644531 53.34375 C 52.828125 53.34375 53.011719 53.296875 53.179688 53.199219 C 53.691406 52.902344 53.867188 52.246094 53.570312 51.734375 L 48.976562 43.777344 L 52.605469 37.492188 L 67.359375 63.039062 L 4.640625 63.039062 Z M 4.640625 63.042969 " fill-opacity="1" fill-rule="nonzero"/><g fill="#000000" fill-opacity="1"><g transform="translate(0.0000004, 83.249998)"><g><path d="M 1.453125 -0.390625 C 1.773438 -0.390625 2.003906 -0.550781 2.140625 -0.875 L 2.609375 -0.703125 C 2.503906 -0.453125 2.351562 -0.265625 2.15625 -0.140625 C 1.957031 -0.0234375 1.722656 0.03125 1.453125 0.03125 C 1.035156 0.03125 0.710938 -0.0820312 0.484375 -0.3125 C 0.265625 -0.550781 0.15625 -0.878906 0.15625 -1.296875 C 0.15625 -1.722656 0.265625 -2.050781 0.484375 -2.28125 C 0.703125 -2.507812 1.019531 -2.625 1.4375 -2.625 C 1.738281 -2.625 1.984375 -2.5625 2.171875 -2.4375 C 2.359375 -2.3125 2.492188 -2.132812 2.578125 -1.90625 L 2.09375 -1.765625 C 2.050781 -1.898438 1.972656 -2.003906 1.859375 -2.078125 C 1.742188 -2.148438 1.601562 -2.1875 1.4375 -2.1875 C 1.195312 -2.1875 1.015625 -2.109375 0.890625 -1.953125 C 0.765625 -1.804688 0.703125 -1.585938 0.703125 -1.296875 C 0.703125 -1.003906 0.765625 -0.78125 0.890625 -0.625 C 1.023438 -0.46875 1.210938 -0.390625 1.453125 -0.390625 Z M 1.453125 -0.390625 "/></g></g><g transform="translate(2.70813, 83.249998)"><g><path d="M 0.265625 0 L 0.265625 -1.515625 C 0.265625 -1.617188 0.257812 -1.707031 0.25 -1.78125 C 0.25 -1.851562 0.25 -1.921875 0.25 -1.984375 L 0.734375 -1.984375 C 0.742188 -1.960938 0.75 -1.894531 0.75 -1.78125 C 0.757812 -1.664062 0.765625 -1.59375 0.765625 -1.5625 C 0.816406 -1.695312 0.863281 -1.789062 0.90625 -1.84375 C 0.945312 -1.90625 0.992188 -1.945312 1.046875 -1.96875 C 1.097656 -2 1.164062 -2.015625 1.25 -2.015625 C 1.3125 -2.015625 1.363281 -2.007812 1.40625 -2 L 1.40625 -1.5625 C 1.320312 -1.582031 1.25 -1.59375 1.1875 -1.59375 C 1.050781 -1.59375 0.945312 -1.539062 0.875 -1.4375 C 0.8125 -1.332031 0.78125 -1.175781 0.78125 -0.96875 L 0.78125 0 Z M 0.265625 0 "/></g></g><g transform="translate(4.167481, 83.249998)"><g><path d="M 1.078125 0.03125 C 0.773438 0.03125 0.539062 -0.0546875 0.375 -0.234375 C 0.21875 -0.410156 0.140625 -0.664062 0.140625 -1 C 0.140625 -1.320312 0.222656 -1.570312 0.390625 -1.75 C 0.554688 -1.925781 0.785156 -2.015625 1.078125 -2.015625 C 1.359375 -2.015625 1.570312 -1.921875 1.71875 -1.734375 C 1.875 -1.546875 1.953125 -1.269531 1.953125 -0.90625 L 1.953125 -0.890625 L 0.6875 -0.890625 C 0.6875 -0.703125 0.722656 -0.554688 0.796875 -0.453125 C 0.867188 -0.359375 0.96875 -0.3125 1.09375 -0.3125 C 1.28125 -0.3125 1.394531 -0.390625 1.4375 -0.546875 L 1.921875 -0.5 C 1.785156 -0.144531 1.503906 0.03125 1.078125 0.03125 Z M 1.078125 -1.6875 C 0.953125 -1.6875 0.859375 -1.644531 0.796875 -1.5625 C 0.734375 -1.476562 0.695312 -1.363281 0.6875 -1.21875 L 1.453125 -1.21875 C 1.441406 -1.375 1.40625 -1.488281 1.34375 -1.5625 C 1.28125 -1.644531 1.191406 -1.6875 1.078125 -1.6875 Z M 1.078125 -1.6875 "/></g></g><g transform="translate(6.253052, 83.249998)"><g><path d="M 0.71875 0.03125 C 0.53125 0.03125 0.378906 -0.0195312 0.265625 -0.125 C 0.160156 -0.226562 0.109375 -0.375 0.109375 -0.5625 C 0.109375 -0.769531 0.175781 -0.925781 0.3125 -1.03125 C 0.445312 -1.132812 0.640625 -1.1875 0.890625 -1.1875 L 1.3125 -1.203125 L 1.3125 -1.296875 C 1.3125 -1.429688 1.289062 -1.53125 1.25 -1.59375 C 1.207031 -1.65625 1.132812 -1.6875 1.03125 -1.6875 C 0.9375 -1.6875 0.863281 -1.660156 0.8125 -1.609375 C 0.769531 -1.566406 0.742188 -1.5 0.734375 -1.40625 L 0.203125 -1.4375 C 0.234375 -1.625 0.316406 -1.765625 0.453125 -1.859375 C 0.597656 -1.960938 0.796875 -2.015625 1.046875 -2.015625 C 1.296875 -2.015625 1.488281 -1.953125 1.625 -1.828125 C 1.757812 -1.703125 1.828125 -1.53125 1.828125 -1.3125 L 1.828125 -0.59375 C 1.828125 -0.476562 1.835938 -0.398438 1.859375 -0.359375 C 1.890625 -0.316406 1.9375 -0.296875 2 -0.296875 C 2.03125 -0.296875 2.066406 -0.296875 2.109375 -0.296875 L 2.109375 -0.03125 C 2.078125 -0.0195312 2.046875 -0.0078125 2.015625 0 C 1.992188 0 1.972656 0 1.953125 0 C 1.929688 0.0078125 1.90625 0.015625 1.875 0.015625 C 1.84375 0.015625 1.8125 0.015625 1.78125 0.015625 C 1.644531 0.015625 1.546875 -0.015625 1.484375 -0.078125 C 1.429688 -0.140625 1.394531 -0.234375 1.375 -0.359375 C 1.226562 -0.0976562 1.007812 0.03125 0.71875 0.03125 Z M 1.3125 -0.921875 L 1.0625 -0.90625 C 0.9375 -0.90625 0.847656 -0.894531 0.796875 -0.875 C 0.742188 -0.851562 0.703125 -0.816406 0.671875 -0.765625 C 0.648438 -0.722656 0.640625 -0.664062 0.640625 -0.59375 C 0.640625 -0.5 0.660156 -0.429688 0.703125 -0.390625 C 0.753906 -0.347656 0.816406 -0.328125 0.890625 -0.328125 C 0.960938 -0.328125 1.03125 -0.347656 1.09375 -0.390625 C 1.164062 -0.429688 1.21875 -0.488281 1.25 -0.5625 C 1.289062 -0.644531 1.3125 -0.726562 1.3125 -0.8125 Z M 1.3125 -0.921875 "/></g></g><g transform="translate(8.338623, 83.249998)"><g><path d="M 0.765625 0.03125 C 0.617188 0.03125 0.503906 -0.0078125 0.421875 -0.09375 C 0.335938 -0.175781 0.296875 -0.300781 0.296875 -0.46875 L 0.296875 -1.640625 L 0.046875 -1.640625 L 0.046875 -1.984375 L 0.328125 -1.984375 L 0.484375 -2.453125 L 0.8125 -2.453125 L 0.8125 -1.984375 L 1.1875 -1.984375 L 1.1875 -1.640625 L 0.8125 -1.640625 L 0.8125 -0.609375 C 0.8125 -0.503906 0.828125 -0.429688 0.859375 -0.390625 C 0.898438 -0.347656 0.957031 -0.328125 1.03125 -0.328125 C 1.070312 -0.328125 1.128906 -0.332031 1.203125 -0.34375 L 1.203125 -0.03125 C 1.078125 0.0078125 0.929688 0.03125 0.765625 0.03125 Z M 0.765625 0.03125 "/></g></g><g transform="translate(9.587402, 83.249998)"><g><path d="M 1.078125 0.03125 C 0.773438 0.03125 0.539062 -0.0546875 0.375 -0.234375 C 0.21875 -0.410156 0.140625 -0.664062 0.140625 -1 C 0.140625 -1.320312 0.222656 -1.570312 0.390625 -1.75 C 0.554688 -1.925781 0.785156 -2.015625 1.078125 -2.015625 C 1.359375 -2.015625 1.570312 -1.921875 1.71875 -1.734375 C 1.875 -1.546875 1.953125 -1.269531 1.953125 -0.90625 L 1.953125 -0.890625 L 0.6875 -0.890625 C 0.6875 -0.703125 0.722656 -0.554688 0.796875 -0.453125 C 0.867188 -0.359375 0.96875 -0.3125 1.09375 -0.3125 C 1.28125 -0.3125 1.394531 -0.390625 1.4375 -0.546875 L 1.921875 -0.5 C 1.785156 -0.144531 1.503906 0.03125 1.078125 0.03125 Z M 1.078125 -1.6875 C 0.953125 -1.6875 0.859375 -1.644531 0.796875 -1.5625 C 0.734375 -1.476562 0.695312 -1.363281 0.6875 -1.21875 L 1.453125 -1.21875 C 1.441406 -1.375 1.40625 -1.488281 1.34375 -1.5625 C 1.28125 -1.644531 1.191406 -1.6875 1.078125 -1.6875 Z M 1.078125 -1.6875 "/></g></g><g transform="translate(11.672973, 83.249998)"><g><path d="M 1.546875 0 C 1.535156 -0.0195312 1.523438 -0.0664062 1.515625 -0.140625 C 1.515625 -0.210938 1.515625 -0.273438 1.515625 -0.328125 C 1.398438 -0.0859375 1.1875 0.03125 0.875 0.03125 C 0.644531 0.03125 0.46875 -0.0546875 0.34375 -0.234375 C 0.21875 -0.410156 0.15625 -0.660156 0.15625 -0.984375 C 0.15625 -1.316406 0.21875 -1.570312 0.34375 -1.75 C 0.476562 -1.925781 0.671875 -2.015625 0.921875 -2.015625 C 1.054688 -2.015625 1.175781 -1.984375 1.28125 -1.921875 C 1.382812 -1.867188 1.460938 -1.785156 1.515625 -1.671875 L 1.515625 -2.71875 L 2.03125 -2.71875 L 2.03125 -0.4375 C 2.03125 -0.3125 2.035156 -0.164062 2.046875 0 Z M 1.515625 -1 C 1.515625 -1.21875 1.476562 -1.382812 1.40625 -1.5 C 1.34375 -1.613281 1.238281 -1.671875 1.09375 -1.671875 C 0.957031 -1.671875 0.851562 -1.613281 0.78125 -1.5 C 0.71875 -1.382812 0.6875 -1.210938 0.6875 -0.984375 C 0.6875 -0.535156 0.820312 -0.3125 1.09375 -0.3125 C 1.226562 -0.3125 1.332031 -0.367188 1.40625 -0.484375 C 1.476562 -0.609375 1.515625 -0.78125 1.515625 -1 Z M 1.515625 -1 "/></g></g><g transform="translate(13.963623, 83.249998)"><g/></g><g transform="translate(15.005493, 83.249998)"><g><path d="M 2.140625 -1 C 2.140625 -0.664062 2.070312 -0.410156 1.9375 -0.234375 C 1.8125 -0.0546875 1.625 0.03125 1.375 0.03125 C 1.238281 0.03125 1.117188 0.00390625 1.015625 -0.046875 C 0.910156 -0.109375 0.832031 -0.195312 0.78125 -0.3125 L 0.765625 -0.3125 C 0.765625 -0.269531 0.757812 -0.210938 0.75 -0.140625 C 0.75 -0.0664062 0.75 -0.0195312 0.75 0 L 0.25 0 C 0.257812 -0.113281 0.265625 -0.265625 0.265625 -0.453125 L 0.265625 -2.71875 L 0.78125 -2.71875 L 0.78125 -1.953125 L 0.765625 -1.640625 L 0.78125 -1.640625 C 0.894531 -1.890625 1.101562 -2.015625 1.40625 -2.015625 C 1.644531 -2.015625 1.828125 -1.925781 1.953125 -1.75 C 2.078125 -1.570312 2.140625 -1.320312 2.140625 -1 Z M 1.59375 -1 C 1.59375 -1.21875 1.5625 -1.378906 1.5 -1.484375 C 1.4375 -1.597656 1.335938 -1.65625 1.203125 -1.65625 C 1.054688 -1.65625 0.945312 -1.597656 0.875 -1.484375 C 0.800781 -1.367188 0.765625 -1.203125 0.765625 -0.984375 C 0.765625 -0.773438 0.800781 -0.609375 0.875 -0.484375 C 0.945312 -0.367188 1.050781 -0.3125 1.1875 -0.3125 C 1.457031 -0.3125 1.59375 -0.539062 1.59375 -1 Z M 1.59375 -1 "/></g></g><g transform="translate(17.296142, 83.249998)"><g><path d="M 0.515625 0.78125 C 0.390625 0.78125 0.28125 0.769531 0.1875 0.75 L 0.1875 0.390625 C 0.257812 0.398438 0.320312 0.40625 0.375 0.40625 C 0.445312 0.40625 0.503906 0.390625 0.546875 0.359375 C 0.597656 0.335938 0.640625 0.300781 0.671875 0.25 C 0.710938 0.195312 0.757812 0.109375 0.8125 -0.015625 L 0.03125 -1.984375 L 0.578125 -1.984375 L 0.890625 -1.046875 C 0.929688 -0.921875 0.988281 -0.71875 1.0625 -0.4375 L 1.109375 -0.609375 L 1.234375 -1.046875 L 1.53125 -1.984375 L 2.0625 -1.984375 L 1.28125 0.109375 C 1.175781 0.359375 1.066406 0.53125 0.953125 0.625 C 0.835938 0.726562 0.691406 0.78125 0.515625 0.78125 Z M 0.515625 0.78125 "/></g></g><g transform="translate(19.381713, 83.249998)"><g/></g><g transform="translate(20.423583, 83.249998)"><g><path d="M 0.25 0 L 0.25 -2.578125 L 2.28125 -2.578125 L 2.28125 -2.15625 L 0.796875 -2.15625 L 0.796875 -1.515625 L 2.171875 -1.515625 L 2.171875 -1.09375 L 0.796875 -1.09375 L 0.796875 -0.421875 L 2.359375 -0.421875 L 2.359375 0 Z M 0.25 0 "/></g></g><g transform="translate(22.924804, 83.249998)"><g><path d="M 1.53125 0 L 1 -0.890625 L 0.78125 -0.75 L 0.78125 0 L 0.265625 0 L 0.265625 -2.71875 L 0.78125 -2.71875 L 0.78125 -1.15625 L 1.484375 -1.984375 L 2.03125 -1.984375 L 1.34375 -1.203125 L 2.09375 0 Z M 1.53125 0 "/></g></g><g transform="translate(25.010375, 83.249998)"><g><path d="M 2.140625 -1 C 2.140625 -0.675781 2.050781 -0.421875 1.875 -0.234375 C 1.695312 -0.0546875 1.453125 0.03125 1.140625 0.03125 C 0.828125 0.03125 0.582031 -0.0546875 0.40625 -0.234375 C 0.226562 -0.421875 0.140625 -0.675781 0.140625 -1 C 0.140625 -1.3125 0.226562 -1.554688 0.40625 -1.734375 C 0.582031 -1.921875 0.828125 -2.015625 1.140625 -2.015625 C 1.472656 -2.015625 1.722656 -1.925781 1.890625 -1.75 C 2.054688 -1.570312 2.140625 -1.320312 2.140625 -1 Z M 1.609375 -1 C 1.609375 -1.226562 1.566406 -1.394531 1.484375 -1.5 C 1.410156 -1.613281 1.300781 -1.671875 1.15625 -1.671875 C 0.84375 -1.671875 0.6875 -1.445312 0.6875 -1 C 0.6875 -0.769531 0.722656 -0.597656 0.796875 -0.484375 C 0.878906 -0.367188 0.988281 -0.3125 1.125 -0.3125 C 1.445312 -0.3125 1.609375 -0.539062 1.609375 -1 Z M 1.609375 -1 "/></g></g><g transform="translate(27.301024, 83.249998)"><g/></g><g transform="translate(28.342894, 83.249998)"><g><path d="M 2.375 -1.765625 C 2.375 -1.597656 2.332031 -1.445312 2.25 -1.3125 C 2.175781 -1.1875 2.066406 -1.085938 1.921875 -1.015625 C 1.785156 -0.941406 1.625 -0.90625 1.4375 -0.90625 L 0.796875 -0.90625 L 0.796875 0 L 0.25 0 L 0.25 -2.578125 L 1.40625 -2.578125 C 1.71875 -2.578125 1.957031 -2.503906 2.125 -2.359375 C 2.289062 -2.222656 2.375 -2.023438 2.375 -1.765625 Z M 1.828125 -1.75 C 1.828125 -2.019531 1.664062 -2.15625 1.34375 -2.15625 L 0.796875 -2.15625 L 0.796875 -1.328125 L 1.359375 -1.328125 C 1.515625 -1.328125 1.628906 -1.363281 1.703125 -1.4375 C 1.785156 -1.507812 1.828125 -1.613281 1.828125 -1.75 Z M 1.828125 -1.75 "/></g></g><g transform="translate(30.844115, 83.249998)"><g><path d="M 0.75 -1.984375 L 0.75 -0.875 C 0.75 -0.519531 0.863281 -0.34375 1.09375 -0.34375 C 1.21875 -0.34375 1.316406 -0.394531 1.390625 -0.5 C 1.472656 -0.613281 1.515625 -0.753906 1.515625 -0.921875 L 1.515625 -1.984375 L 2.03125 -1.984375 L 2.03125 -0.4375 C 2.03125 -0.269531 2.035156 -0.125 2.046875 0 L 1.546875 0 C 1.535156 -0.175781 1.53125 -0.304688 1.53125 -0.390625 L 1.515625 -0.390625 C 1.453125 -0.242188 1.367188 -0.132812 1.265625 -0.0625 C 1.160156 0 1.035156 0.03125 0.890625 0.03125 C 0.671875 0.03125 0.503906 -0.03125 0.390625 -0.15625 C 0.285156 -0.28125 0.234375 -0.46875 0.234375 -0.71875 L 0.234375 -1.984375 Z M 0.75 -1.984375 "/></g></g><g transform="translate(33.134764, 83.249998)"><g><path d="M 0.265625 0 L 0.265625 -1.515625 C 0.265625 -1.617188 0.257812 -1.707031 0.25 -1.78125 C 0.25 -1.851562 0.25 -1.921875 0.25 -1.984375 L 0.734375 -1.984375 C 0.742188 -1.960938 0.75 -1.894531 0.75 -1.78125 C 0.757812 -1.664062 0.765625 -1.59375 0.765625 -1.5625 C 0.816406 -1.695312 0.863281 -1.789062 0.90625 -1.84375 C 0.945312 -1.90625 0.992188 -1.945312 1.046875 -1.96875 C 1.097656 -2 1.164062 -2.015625 1.25 -2.015625 C 1.3125 -2.015625 1.363281 -2.007812 1.40625 -2 L 1.40625 -1.5625 C 1.320312 -1.582031 1.25 -1.59375 1.1875 -1.59375 C 1.050781 -1.59375 0.945312 -1.539062 0.875 -1.4375 C 0.8125 -1.332031 0.78125 -1.175781 0.78125 -0.96875 L 0.78125 0 Z M 0.265625 0 "/></g></g><g transform="translate(34.594115, 83.249998)"><g><path d="M 1.546875 0 L 1.546875 -1.109375 C 1.546875 -1.460938 1.425781 -1.640625 1.1875 -1.640625 C 1.0625 -1.640625 0.960938 -1.582031 0.890625 -1.46875 C 0.816406 -1.363281 0.78125 -1.226562 0.78125 -1.0625 L 0.78125 0 L 0.265625 0 L 0.265625 -1.53125 C 0.265625 -1.644531 0.257812 -1.734375 0.25 -1.796875 C 0.25 -1.867188 0.25 -1.929688 0.25 -1.984375 L 0.734375 -1.984375 C 0.742188 -1.960938 0.75 -1.898438 0.75 -1.796875 C 0.757812 -1.691406 0.765625 -1.625 0.765625 -1.59375 C 0.835938 -1.738281 0.925781 -1.84375 1.03125 -1.90625 C 1.132812 -1.976562 1.257812 -2.015625 1.40625 -2.015625 C 1.613281 -2.015625 1.773438 -1.945312 1.890625 -1.8125 C 2.003906 -1.6875 2.0625 -1.503906 2.0625 -1.265625 L 2.0625 0 Z M 1.546875 0 "/></g></g><g transform="translate(36.884764, 83.249998)"><g><path d="M 2.140625 -1 C 2.140625 -0.675781 2.050781 -0.421875 1.875 -0.234375 C 1.695312 -0.0546875 1.453125 0.03125 1.140625 0.03125 C 0.828125 0.03125 0.582031 -0.0546875 0.40625 -0.234375 C 0.226562 -0.421875 0.140625 -0.675781 0.140625 -1 C 0.140625 -1.3125 0.226562 -1.554688 0.40625 -1.734375 C 0.582031 -1.921875 0.828125 -2.015625 1.140625 -2.015625 C 1.472656 -2.015625 1.722656 -1.925781 1.890625 -1.75 C 2.054688 -1.570312 2.140625 -1.320312 2.140625 -1 Z M 1.609375 -1 C 1.609375 -1.226562 1.566406 -1.394531 1.484375 -1.5 C 1.410156 -1.613281 1.300781 -1.671875 1.15625 -1.671875 C 0.84375 -1.671875 0.6875 -1.445312 0.6875 -1 C 0.6875 -0.769531 0.722656 -0.597656 0.796875 -0.484375 C 0.878906 -0.367188 0.988281 -0.3125 1.125 -0.3125 C 1.445312 -0.3125 1.609375 -0.539062 1.609375 -1 Z M 1.609375 -1 "/></g></g><g transform="translate(39.175413, 83.249998)"><g><path d="M 1.421875 0 L 1.421875 -1.109375 C 1.421875 -1.460938 1.320312 -1.640625 1.125 -1.640625 C 1.019531 -1.640625 0.9375 -1.582031 0.875 -1.46875 C 0.8125 -1.363281 0.78125 -1.226562 0.78125 -1.0625 L 0.78125 0 L 0.265625 0 L 0.265625 -1.53125 C 0.265625 -1.644531 0.257812 -1.734375 0.25 -1.796875 C 0.25 -1.867188 0.25 -1.929688 0.25 -1.984375 L 0.734375 -1.984375 C 0.742188 -1.960938 0.75 -1.898438 0.75 -1.796875 C 0.757812 -1.691406 0.765625 -1.625 0.765625 -1.59375 C 0.828125 -1.738281 0.90625 -1.84375 1 -1.90625 C 1.09375 -1.976562 1.207031 -2.015625 1.34375 -2.015625 C 1.644531 -2.015625 1.828125 -1.875 1.890625 -1.59375 L 1.90625 -1.59375 C 1.976562 -1.738281 2.0625 -1.84375 2.15625 -1.90625 C 2.25 -1.976562 2.367188 -2.015625 2.515625 -2.015625 C 2.703125 -2.015625 2.847656 -1.945312 2.953125 -1.8125 C 3.054688 -1.6875 3.109375 -1.503906 3.109375 -1.265625 L 3.109375 0 L 2.59375 0 L 2.59375 -1.109375 C 2.59375 -1.460938 2.492188 -1.640625 2.296875 -1.640625 C 2.191406 -1.640625 2.109375 -1.585938 2.046875 -1.484375 C 1.984375 -1.390625 1.945312 -1.253906 1.9375 -1.078125 L 1.9375 0 Z M 1.421875 0 "/></g></g><g transform="translate(42.509764, 83.249998)"><g><path d="M 2.140625 -1 C 2.140625 -0.675781 2.050781 -0.421875 1.875 -0.234375 C 1.695312 -0.0546875 1.453125 0.03125 1.140625 0.03125 C 0.828125 0.03125 0.582031 -0.0546875 0.40625 -0.234375 C 0.226562 -0.421875 0.140625 -0.675781 0.140625 -1 C 0.140625 -1.3125 0.226562 -1.554688 0.40625 -1.734375 C 0.582031 -1.921875 0.828125 -2.015625 1.140625 -2.015625 C 1.472656 -2.015625 1.722656 -1.925781 1.890625 -1.75 C 2.054688 -1.570312 2.140625 -1.320312 2.140625 -1 Z M 1.609375 -1 C 1.609375 -1.226562 1.566406 -1.394531 1.484375 -1.5 C 1.410156 -1.613281 1.300781 -1.671875 1.15625 -1.671875 C 0.84375 -1.671875 0.6875 -1.445312 0.6875 -1 C 0.6875 -0.769531 0.722656 -0.597656 0.796875 -0.484375 C 0.878906 -0.367188 0.988281 -0.3125 1.125 -0.3125 C 1.445312 -0.3125 1.609375 -0.539062 1.609375 -1 Z M 1.609375 -1 "/></g></g></g><g fill="#000000" fill-opacity="1"><g transform="translate(0.0000004, 86.999997)"><g><path d="M 0.859375 -1.640625 L 0.859375 0 L 0.359375 0 L 0.359375 -1.640625 L 0.0625 -1.640625 L 0.0625 -1.984375 L 0.359375 -1.984375 L 0.359375 -2.1875 C 0.359375 -2.363281 0.40625 -2.492188 0.5 -2.578125 C 0.59375 -2.671875 0.738281 -2.71875 0.9375 -2.71875 C 1.03125 -2.71875 1.132812 -2.707031 1.25 -2.6875 L 1.25 -2.359375 C 1.207031 -2.367188 1.160156 -2.375 1.109375 -2.375 C 1.015625 -2.375 0.945312 -2.351562 0.90625 -2.3125 C 0.875 -2.28125 0.859375 -2.222656 0.859375 -2.140625 L 0.859375 -1.984375 L 1.25 -1.984375 L 1.25 -1.640625 Z M 0.859375 -1.640625 "/></g></g><g transform="translate(1.24878, 86.999997)"><g><path d="M 0.265625 0 L 0.265625 -1.515625 C 0.265625 -1.617188 0.257812 -1.707031 0.25 -1.78125 C 0.25 -1.851562 0.25 -1.921875 0.25 -1.984375 L 0.734375 -1.984375 C 0.742188 -1.960938 0.75 -1.894531 0.75 -1.78125 C 0.757812 -1.664062 0.765625 -1.59375 0.765625 -1.5625 C 0.816406 -1.695312 0.863281 -1.789062 0.90625 -1.84375 C 0.945312 -1.90625 0.992188 -1.945312 1.046875 -1.96875 C 1.097656 -2 1.164062 -2.015625 1.25 -2.015625 C 1.3125 -2.015625 1.363281 -2.007812 1.40625 -2 L 1.40625 -1.5625 C 1.320312 -1.582031 1.25 -1.59375 1.1875 -1.59375 C 1.050781 -1.59375 0.945312 -1.539062 0.875 -1.4375 C 0.8125 -1.332031 0.78125 -1.175781 0.78125 -0.96875 L 0.78125 0 Z M 0.265625 0 "/></g></g><g transform="translate(2.70813, 86.999997)"><g><path d="M 2.140625 -1 C 2.140625 -0.675781 2.050781 -0.421875 1.875 -0.234375 C 1.695312 -0.0546875 1.453125 0.03125 1.140625 0.03125 C 0.828125 0.03125 0.582031 -0.0546875 0.40625 -0.234375 C 0.226562 -0.421875 0.140625 -0.675781 0.140625 -1 C 0.140625 -1.3125 0.226562 -1.554688 0.40625 -1.734375 C 0.582031 -1.921875 0.828125 -2.015625 1.140625 -2.015625 C 1.472656 -2.015625 1.722656 -1.925781 1.890625 -1.75 C 2.054688 -1.570312 2.140625 -1.320312 2.140625 -1 Z M 1.609375 -1 C 1.609375 -1.226562 1.566406 -1.394531 1.484375 -1.5 C 1.410156 -1.613281 1.300781 -1.671875 1.15625 -1.671875 C 0.84375 -1.671875 0.6875 -1.445312 0.6875 -1 C 0.6875 -0.769531 0.722656 -0.597656 0.796875 -0.484375 C 0.878906 -0.367188 0.988281 -0.3125 1.125 -0.3125 C 1.445312 -0.3125 1.609375 -0.539062 1.609375 -1 Z M 1.609375 -1 "/></g></g><g transform="translate(4.998779, 86.999997)"><g><path d="M 1.421875 0 L 1.421875 -1.109375 C 1.421875 -1.460938 1.320312 -1.640625 1.125 -1.640625 C 1.019531 -1.640625 0.9375 -1.582031 0.875 -1.46875 C 0.8125 -1.363281 0.78125 -1.226562 0.78125 -1.0625 L 0.78125 0 L 0.265625 0 L 0.265625 -1.53125 C 0.265625 -1.644531 0.257812 -1.734375 0.25 -1.796875 C 0.25 -1.867188 0.25 -1.929688 0.25 -1.984375 L 0.734375 -1.984375 C 0.742188 -1.960938 0.75 -1.898438 0.75 -1.796875 C 0.757812 -1.691406 0.765625 -1.625 0.765625 -1.59375 C 0.828125 -1.738281 0.90625 -1.84375 1 -1.90625 C 1.09375 -1.976562 1.207031 -2.015625 1.34375 -2.015625 C 1.644531 -2.015625 1.828125 -1.875 1.890625 -1.59375 L 1.90625 -1.59375 C 1.976562 -1.738281 2.0625 -1.84375 2.15625 -1.90625 C 2.25 -1.976562 2.367188 -2.015625 2.515625 -2.015625 C 2.703125 -2.015625 2.847656 -1.945312 2.953125 -1.8125 C 3.054688 -1.6875 3.109375 -1.503906 3.109375 -1.265625 L 3.109375 0 L 2.59375 0 L 2.59375 -1.109375 C 2.59375 -1.460938 2.492188 -1.640625 2.296875 -1.640625 C 2.191406 -1.640625 2.109375 -1.585938 2.046875 -1.484375 C 1.984375 -1.390625 1.945312 -1.253906 1.9375 -1.078125 L 1.9375 0 Z M 1.421875 0 "/></g></g><g transform="translate(8.33313, 86.999997)"><g/></g><g transform="translate(9.375, 86.999997)"><g><path d="M 0.765625 0.03125 C 0.617188 0.03125 0.503906 -0.0078125 0.421875 -0.09375 C 0.335938 -0.175781 0.296875 -0.300781 0.296875 -0.46875 L 0.296875 -1.640625 L 0.046875 -1.640625 L 0.046875 -1.984375 L 0.328125 -1.984375 L 0.484375 -2.453125 L 0.8125 -2.453125 L 0.8125 -1.984375 L 1.1875 -1.984375 L 1.1875 -1.640625 L 0.8125 -1.640625 L 0.8125 -0.609375 C 0.8125 -0.503906 0.828125 -0.429688 0.859375 -0.390625 C 0.898438 -0.347656 0.957031 -0.328125 1.03125 -0.328125 C 1.070312 -0.328125 1.128906 -0.332031 1.203125 -0.34375 L 1.203125 -0.03125 C 1.078125 0.0078125 0.929688 0.03125 0.765625 0.03125 Z M 0.765625 0.03125 "/></g></g><g transform="translate(10.623779, 86.999997)"><g><path d="M 0.765625 -1.578125 C 0.835938 -1.734375 0.925781 -1.84375 1.03125 -1.90625 C 1.132812 -1.976562 1.257812 -2.015625 1.40625 -2.015625 C 1.613281 -2.015625 1.773438 -1.945312 1.890625 -1.8125 C 2.003906 -1.6875 2.0625 -1.5 2.0625 -1.25 L 2.0625 0 L 1.546875 0 L 1.546875 -1.109375 C 1.546875 -1.453125 1.425781 -1.625 1.1875 -1.625 C 1.0625 -1.625 0.960938 -1.570312 0.890625 -1.46875 C 0.816406 -1.363281 0.78125 -1.226562 0.78125 -1.0625 L 0.78125 0 L 0.265625 0 L 0.265625 -2.71875 L 0.78125 -2.71875 L 0.78125 -1.96875 C 0.78125 -1.84375 0.773438 -1.710938 0.765625 -1.578125 Z M 0.765625 -1.578125 "/></g></g><g transform="translate(12.914428, 86.999997)"><g><path d="M 1.078125 0.03125 C 0.773438 0.03125 0.539062 -0.0546875 0.375 -0.234375 C 0.21875 -0.410156 0.140625 -0.664062 0.140625 -1 C 0.140625 -1.320312 0.222656 -1.570312 0.390625 -1.75 C 0.554688 -1.925781 0.785156 -2.015625 1.078125 -2.015625 C 1.359375 -2.015625 1.570312 -1.921875 1.71875 -1.734375 C 1.875 -1.546875 1.953125 -1.269531 1.953125 -0.90625 L 1.953125 -0.890625 L 0.6875 -0.890625 C 0.6875 -0.703125 0.722656 -0.554688 0.796875 -0.453125 C 0.867188 -0.359375 0.96875 -0.3125 1.09375 -0.3125 C 1.28125 -0.3125 1.394531 -0.390625 1.4375 -0.546875 L 1.921875 -0.5 C 1.785156 -0.144531 1.503906 0.03125 1.078125 0.03125 Z M 1.078125 -1.6875 C 0.953125 -1.6875 0.859375 -1.644531 0.796875 -1.5625 C 0.734375 -1.476562 0.695312 -1.363281 0.6875 -1.21875 L 1.453125 -1.21875 C 1.441406 -1.375 1.40625 -1.488281 1.34375 -1.5625 C 1.28125 -1.644531 1.191406 -1.6875 1.078125 -1.6875 Z M 1.078125 -1.6875 "/></g></g><g transform="translate(15, 86.999997)"><g/></g><g transform="translate(16.04187, 86.999997)"><g><path d="M 1.828125 0 L 0.703125 -1.984375 C 0.722656 -1.796875 0.734375 -1.640625 0.734375 -1.515625 L 0.734375 0 L 0.25 0 L 0.25 -2.578125 L 0.875 -2.578125 L 2.015625 -0.578125 C 1.984375 -0.765625 1.96875 -0.929688 1.96875 -1.078125 L 1.96875 -2.578125 L 2.453125 -2.578125 L 2.453125 0 Z M 1.828125 0 "/></g></g><g transform="translate(18.749999, 86.999997)"><g><path d="M 2.140625 -1 C 2.140625 -0.675781 2.050781 -0.421875 1.875 -0.234375 C 1.695312 -0.0546875 1.453125 0.03125 1.140625 0.03125 C 0.828125 0.03125 0.582031 -0.0546875 0.40625 -0.234375 C 0.226562 -0.421875 0.140625 -0.675781 0.140625 -1 C 0.140625 -1.3125 0.226562 -1.554688 0.40625 -1.734375 C 0.582031 -1.921875 0.828125 -2.015625 1.140625 -2.015625 C 1.472656 -2.015625 1.722656 -1.925781 1.890625 -1.75 C 2.054688 -1.570312 2.140625 -1.320312 2.140625 -1 Z M 1.609375 -1 C 1.609375 -1.226562 1.566406 -1.394531 1.484375 -1.5 C 1.410156 -1.613281 1.300781 -1.671875 1.15625 -1.671875 C 0.84375 -1.671875 0.6875 -1.445312 0.6875 -1 C 0.6875 -0.769531 0.722656 -0.597656 0.796875 -0.484375 C 0.878906 -0.367188 0.988281 -0.3125 1.125 -0.3125 C 1.445312 -0.3125 1.609375 -0.539062 1.609375 -1 Z M 1.609375 -1 "/></g></g><g transform="translate(21.040649, 86.999997)"><g><path d="M 0.75 -1.984375 L 0.75 -0.875 C 0.75 -0.519531 0.863281 -0.34375 1.09375 -0.34375 C 1.21875 -0.34375 1.316406 -0.394531 1.390625 -0.5 C 1.472656 -0.613281 1.515625 -0.753906 1.515625 -0.921875 L 1.515625 -1.984375 L 2.03125 -1.984375 L 2.03125 -0.4375 C 2.03125 -0.269531 2.035156 -0.125 2.046875 0 L 1.546875 0 C 1.535156 -0.175781 1.53125 -0.304688 1.53125 -0.390625 L 1.515625 -0.390625 C 1.453125 -0.242188 1.367188 -0.132812 1.265625 -0.0625 C 1.160156 0 1.035156 0.03125 0.890625 0.03125 C 0.671875 0.03125 0.503906 -0.03125 0.390625 -0.15625 C 0.285156 -0.28125 0.234375 -0.46875 0.234375 -0.71875 L 0.234375 -1.984375 Z M 0.75 -1.984375 "/></g></g><g transform="translate(23.331298, 86.999997)"><g><path d="M 1.546875 0 L 1.546875 -1.109375 C 1.546875 -1.460938 1.425781 -1.640625 1.1875 -1.640625 C 1.0625 -1.640625 0.960938 -1.582031 0.890625 -1.46875 C 0.816406 -1.363281 0.78125 -1.226562 0.78125 -1.0625 L 0.78125 0 L 0.265625 0 L 0.265625 -1.53125 C 0.265625 -1.644531 0.257812 -1.734375 0.25 -1.796875 C 0.25 -1.867188 0.25 -1.929688 0.25 -1.984375 L 0.734375 -1.984375 C 0.742188 -1.960938 0.75 -1.898438 0.75 -1.796875 C 0.757812 -1.691406 0.765625 -1.625 0.765625 -1.59375 C 0.835938 -1.738281 0.925781 -1.84375 1.03125 -1.90625 C 1.132812 -1.976562 1.257812 -2.015625 1.40625 -2.015625 C 1.613281 -2.015625 1.773438 -1.945312 1.890625 -1.8125 C 2.003906 -1.6875 2.0625 -1.503906 2.0625 -1.265625 L 2.0625 0 Z M 1.546875 0 "/></g></g><g transform="translate(25.621947, 86.999997)"><g/></g><g transform="translate(26.663817, 86.999997)"><g><path d="M 2.375 -1.765625 C 2.375 -1.597656 2.332031 -1.445312 2.25 -1.3125 C 2.175781 -1.1875 2.066406 -1.085938 1.921875 -1.015625 C 1.785156 -0.941406 1.625 -0.90625 1.4375 -0.90625 L 0.796875 -0.90625 L 0.796875 0 L 0.25 0 L 0.25 -2.578125 L 1.40625 -2.578125 C 1.71875 -2.578125 1.957031 -2.503906 2.125 -2.359375 C 2.289062 -2.222656 2.375 -2.023438 2.375 -1.765625 Z M 1.828125 -1.75 C 1.828125 -2.019531 1.664062 -2.15625 1.34375 -2.15625 L 0.796875 -2.15625 L 0.796875 -1.328125 L 1.359375 -1.328125 C 1.515625 -1.328125 1.628906 -1.363281 1.703125 -1.4375 C 1.785156 -1.507812 1.828125 -1.613281 1.828125 -1.75 Z M 1.828125 -1.75 "/></g></g><g transform="translate(29.165038, 86.999997)"><g><path d="M 0.265625 0 L 0.265625 -1.515625 C 0.265625 -1.617188 0.257812 -1.707031 0.25 -1.78125 C 0.25 -1.851562 0.25 -1.921875 0.25 -1.984375 L 0.734375 -1.984375 C 0.742188 -1.960938 0.75 -1.894531 0.75 -1.78125 C 0.757812 -1.664062 0.765625 -1.59375 0.765625 -1.5625 C 0.816406 -1.695312 0.863281 -1.789062 0.90625 -1.84375 C 0.945312 -1.90625 0.992188 -1.945312 1.046875 -1.96875 C 1.097656 -2 1.164062 -2.015625 1.25 -2.015625 C 1.3125 -2.015625 1.363281 -2.007812 1.40625 -2 L 1.40625 -1.5625 C 1.320312 -1.582031 1.25 -1.59375 1.1875 -1.59375 C 1.050781 -1.59375 0.945312 -1.539062 0.875 -1.4375 C 0.8125 -1.332031 0.78125 -1.175781 0.78125 -0.96875 L 0.78125 0 Z M 0.265625 0 "/></g></g><g transform="translate(30.624388, 86.999997)"><g><path d="M 2.140625 -1 C 2.140625 -0.675781 2.050781 -0.421875 1.875 -0.234375 C 1.695312 -0.0546875 1.453125 0.03125 1.140625 0.03125 C 0.828125 0.03125 0.582031 -0.0546875 0.40625 -0.234375 C 0.226562 -0.421875 0.140625 -0.675781 0.140625 -1 C 0.140625 -1.3125 0.226562 -1.554688 0.40625 -1.734375 C 0.582031 -1.921875 0.828125 -2.015625 1.140625 -2.015625 C 1.472656 -2.015625 1.722656 -1.925781 1.890625 -1.75 C 2.054688 -1.570312 2.140625 -1.320312 2.140625 -1 Z M 1.609375 -1 C 1.609375 -1.226562 1.566406 -1.394531 1.484375 -1.5 C 1.410156 -1.613281 1.300781 -1.671875 1.15625 -1.671875 C 0.84375 -1.671875 0.6875 -1.445312 0.6875 -1 C 0.6875 -0.769531 0.722656 -0.597656 0.796875 -0.484375 C 0.878906 -0.367188 0.988281 -0.3125 1.125 -0.3125 C 1.445312 -0.3125 1.609375 -0.539062 1.609375 -1 Z M 1.609375 -1 "/></g></g><g transform="translate(32.915038, 86.999997)"><g><path d="M 0.265625 -2.34375 L 0.265625 -2.71875 L 0.78125 -2.71875 L 0.78125 -2.34375 Z M 0.25 0.78125 C 0.125 0.78125 0.0195312 0.773438 -0.0625 0.765625 L -0.0625 0.40625 L 0.03125 0.40625 C 0.125 0.40625 0.1875 0.382812 0.21875 0.34375 C 0.25 0.3125 0.265625 0.234375 0.265625 0.109375 L 0.265625 -1.984375 L 0.78125 -1.984375 L 0.78125 0.234375 C 0.78125 0.410156 0.734375 0.546875 0.640625 0.640625 C 0.554688 0.734375 0.425781 0.78125 0.25 0.78125 Z M 0.25 0.78125 "/></g></g><g transform="translate(33.956908, 86.999997)"><g><path d="M 1.078125 0.03125 C 0.773438 0.03125 0.539062 -0.0546875 0.375 -0.234375 C 0.21875 -0.410156 0.140625 -0.664062 0.140625 -1 C 0.140625 -1.320312 0.222656 -1.570312 0.390625 -1.75 C 0.554688 -1.925781 0.785156 -2.015625 1.078125 -2.015625 C 1.359375 -2.015625 1.570312 -1.921875 1.71875 -1.734375 C 1.875 -1.546875 1.953125 -1.269531 1.953125 -0.90625 L 1.953125 -0.890625 L 0.6875 -0.890625 C 0.6875 -0.703125 0.722656 -0.554688 0.796875 -0.453125 C 0.867188 -0.359375 0.96875 -0.3125 1.09375 -0.3125 C 1.28125 -0.3125 1.394531 -0.390625 1.4375 -0.546875 L 1.921875 -0.5 C 1.785156 -0.144531 1.503906 0.03125 1.078125 0.03125 Z M 1.078125 -1.6875 C 0.953125 -1.6875 0.859375 -1.644531 0.796875 -1.5625 C 0.734375 -1.476562 0.695312 -1.363281 0.6875 -1.21875 L 1.453125 -1.21875 C 1.441406 -1.375 1.40625 -1.488281 1.34375 -1.5625 C 1.28125 -1.644531 1.191406 -1.6875 1.078125 -1.6875 Z M 1.078125 -1.6875 "/></g></g><g transform="translate(36.042479, 86.999997)"><g><path d="M 1.09375 0.03125 C 0.789062 0.03125 0.554688 -0.0546875 0.390625 -0.234375 C 0.222656 -0.410156 0.140625 -0.660156 0.140625 -0.984375 C 0.140625 -1.304688 0.222656 -1.554688 0.390625 -1.734375 C 0.554688 -1.921875 0.789062 -2.015625 1.09375 -2.015625 C 1.320312 -2.015625 1.515625 -1.957031 1.671875 -1.84375 C 1.828125 -1.726562 1.925781 -1.566406 1.96875 -1.359375 L 1.4375 -1.328125 C 1.425781 -1.429688 1.390625 -1.515625 1.328125 -1.578125 C 1.273438 -1.640625 1.191406 -1.671875 1.078125 -1.671875 C 0.816406 -1.671875 0.6875 -1.445312 0.6875 -1 C 0.6875 -0.539062 0.820312 -0.3125 1.09375 -0.3125 C 1.1875 -0.3125 1.265625 -0.34375 1.328125 -0.40625 C 1.398438 -0.46875 1.441406 -0.5625 1.453125 -0.6875 L 1.96875 -0.65625 C 1.957031 -0.519531 1.910156 -0.398438 1.828125 -0.296875 C 1.753906 -0.191406 1.648438 -0.109375 1.515625 -0.046875 C 1.390625 0.00390625 1.25 0.03125 1.09375 0.03125 Z M 1.09375 0.03125 "/></g></g><g transform="translate(38.12805, 86.999997)"><g><path d="M 0.765625 0.03125 C 0.617188 0.03125 0.503906 -0.0078125 0.421875 -0.09375 C 0.335938 -0.175781 0.296875 -0.300781 0.296875 -0.46875 L 0.296875 -1.640625 L 0.046875 -1.640625 L 0.046875 -1.984375 L 0.328125 -1.984375 L 0.484375 -2.453125 L 0.8125 -2.453125 L 0.8125 -1.984375 L 1.1875 -1.984375 L 1.1875 -1.640625 L 0.8125 -1.640625 L 0.8125 -0.609375 C 0.8125 -0.503906 0.828125 -0.429688 0.859375 -0.390625 C 0.898438 -0.347656 0.957031 -0.328125 1.03125 -0.328125 C 1.070312 -0.328125 1.128906 -0.332031 1.203125 -0.34375 L 1.203125 -0.03125 C 1.078125 0.0078125 0.929688 0.03125 0.765625 0.03125 Z M 0.765625 0.03125 "/></g></g></g><g clip-path="url(#079d3ee0bd)"><g clip-path="url(#5e8d255589)"><path fill="#ffffff" d="M -10.425781 78.449219 L 46.800781 78.449219 L 46.800781 91.125 L -10.425781 91.125 Z M -10.425781 78.449219 " fill-opacity="1" fill-rule="nonzero"/></g></g><g clip-path="url(#3a3db228dc)"><g clip-path="url(#a0f1cfe463)"><path fill="#ffffff" d="M -6.75 74.398438 L 47.925781 74.398438 L 47.925781 92.851562 L -6.75 92.851562 Z M -6.75 74.398438 " fill-opacity="1" fill-rule="nonzero"/></g></g></svg>